<svg width="126" height="126" viewBox="0 0 126 126" fill="none" xmlns="http://www.w3.org/2000/svg">
<path d="M114.188 55.125C118.531 55.125 122.062 51.5931 122.062 47.25C122.062 42.9069 118.531 39.375 114.188 39.375C109.844 39.375 106.312 42.9069 106.312 47.25C106.312 48.1556 106.498 49.012 106.779 49.8232L95.7757 57.1587C93.6121 55.8278 91.0665 55.0679 88.3457 55.127C87.4696 51.7328 84.3826 49.2188 80.7188 49.2188C80.7188 48.8486 80.6853 48.4864 80.6636 48.1202L100.369 28.415C101.54 29.108 102.887 29.5312 104.344 29.5312C108.687 29.5312 112.219 25.9993 112.219 21.6562C112.219 17.3132 108.687 13.7812 104.344 13.7812C100.001 13.7812 96.4688 17.3132 96.4688 21.6562C96.4688 23.1131 96.892 24.4598 97.585 25.6312L79.7442 43.472C78.5197 39.9164 76.2024 36.8707 73.1824 34.7406L78.2184 19.6324C78.3976 19.6462 78.5689 19.6875 78.75 19.6875C83.0931 19.6875 86.625 16.1556 86.625 11.8125C86.625 7.46944 83.0931 3.9375 78.75 3.9375C74.4069 3.9375 70.875 7.46944 70.875 11.8125C70.875 14.5786 72.3142 17.0041 74.4758 18.4098L69.6741 32.8151C67.6108 31.9725 65.3605 31.5 63 31.5C60.6473 31.5 58.399 31.9784 56.3299 32.825L51.5242 18.4098C53.6858 17.0041 55.125 14.5786 55.125 11.8125C55.125 7.46944 51.5931 3.9375 47.25 3.9375C42.9069 3.9375 39.375 7.46944 39.375 11.8125C39.375 16.1556 42.9069 19.6875 47.25 19.6875C47.4311 19.6875 47.6024 19.6462 47.7816 19.6343L52.8176 34.7425C49.8113 36.8629 47.4862 39.9007 46.2597 43.4759L28.415 25.6312C29.108 24.4598 29.5312 23.1131 29.5312 21.6562C29.5312 17.3132 25.9993 13.7812 21.6562 13.7812C17.3132 13.7812 13.7812 17.3132 13.7812 21.6562C13.7812 25.9993 17.3132 29.5312 21.6562 29.5312C23.1131 29.5312 24.4598 29.108 25.6312 28.415L43.1412 45.925C38.6564 47.313 35.1304 50.8961 33.9235 55.5818C32.5927 55.9243 31.3661 56.4815 30.2361 57.1666L19.2189 49.8212C19.5024 49.012 19.6875 48.1556 19.6875 47.25C19.6875 42.9069 16.1556 39.375 11.8125 39.375C7.46944 39.375 3.9375 42.9069 3.9375 47.25C3.9375 51.5931 7.46944 55.125 11.8125 55.125C13.8246 55.125 15.6437 54.3434 17.0356 53.0992L27.092 59.8027C24.9382 62.2381 23.625 65.4117 23.625 68.9062C23.625 69.7942 23.7175 70.6584 23.877 71.5011L18.2917 74.2928C16.8722 72.2315 14.4998 70.875 11.8125 70.875C7.46944 70.875 3.9375 74.4069 3.9375 78.75C3.9375 83.0931 7.46944 86.625 11.8125 86.625C16.1556 86.625 19.6875 83.0931 19.6875 78.75C19.6875 78.5059 19.6363 78.2736 19.6147 78.0353L25.1842 75.2515C27.4857 79.6615 32.0946 82.6875 37.4062 82.6875H40.5287L25.6312 97.585C24.4598 96.892 23.1131 96.4688 21.6562 96.4688C17.3132 96.4688 13.7812 100.001 13.7812 104.344C13.7812 108.687 17.3132 112.219 21.6562 112.219C25.9993 112.219 29.5312 108.687 29.5312 104.344C29.5312 102.887 29.108 101.54 28.415 100.369L46.0963 82.6875H54.4832L47.7205 106.36C47.5611 106.35 47.4114 106.312 47.25 106.312C42.9069 106.312 39.375 109.844 39.375 114.188C39.375 118.531 42.9069 122.062 47.25 122.062C51.5931 122.062 55.125 118.531 55.125 114.188C55.125 111.4 53.6602 108.962 51.471 107.563L58.5782 82.6875H67.4218L74.529 107.563C72.3397 108.962 70.875 111.4 70.875 114.188C70.875 118.531 74.4069 122.062 78.75 122.062C83.0931 122.062 86.625 118.531 86.625 114.188C86.625 109.844 83.0931 106.312 78.75 106.312C78.5886 106.312 78.4389 106.35 78.2795 106.36L71.5168 82.6875H79.9037L97.585 100.369C96.892 101.54 96.4688 102.887 96.4688 104.344C96.4688 108.687 100.001 112.219 104.344 112.219C108.687 112.219 112.219 108.687 112.219 104.344C112.219 100.001 108.687 96.4688 104.344 96.4688C102.887 96.4688 101.54 96.892 100.369 97.585L85.4713 82.6875H88.5938C93.9054 82.6875 98.5143 79.6615 100.816 75.2496L106.385 78.0334C106.364 78.2736 106.312 78.5059 106.312 78.75C106.312 83.0931 109.844 86.625 114.188 86.625C118.531 86.625 122.062 83.0931 122.062 78.75C122.062 74.4069 118.531 70.875 114.188 70.875C111.5 70.875 109.128 72.2315 107.706 74.2928L102.121 71.5011C102.282 70.6584 102.375 69.7942 102.375 68.9062C102.375 65.4196 101.06 62.2342 98.912 59.7988L108.962 53.0972C110.356 54.3434 112.175 55.125 114.188 55.125ZM104.344 17.7188C106.515 17.7188 108.281 19.4847 108.281 21.6562C108.281 23.8278 106.515 25.5938 104.344 25.5938C102.172 25.5938 100.406 23.8278 100.406 21.6562C100.406 19.4847 102.172 17.7188 104.344 17.7188ZM78.75 7.875C80.9215 7.875 82.6875 9.64097 82.6875 11.8125C82.6875 13.984 80.9215 15.75 78.75 15.75C76.5785 15.75 74.8125 13.984 74.8125 11.8125C74.8125 9.64097 76.5785 7.875 78.75 7.875ZM43.3125 11.8125C43.3125 9.64097 45.0785 7.875 47.25 7.875C49.4215 7.875 51.1875 9.64097 51.1875 11.8125C51.1875 13.984 49.4215 15.75 47.25 15.75C45.0785 15.75 43.3125 13.984 43.3125 11.8125ZM11.8125 82.6875C9.64097 82.6875 7.875 80.9215 7.875 78.75C7.875 76.5785 9.64097 74.8125 11.8125 74.8125C13.984 74.8125 15.75 76.5785 15.75 78.75C15.75 80.9215 13.984 82.6875 11.8125 82.6875ZM21.6562 108.281C19.4847 108.281 17.7188 106.515 17.7188 104.344C17.7188 102.172 19.4847 100.406 21.6562 100.406C23.8278 100.406 25.5938 102.172 25.5938 104.344C25.5938 106.515 23.8278 108.281 21.6562 108.281ZM47.25 118.125C45.0785 118.125 43.3125 116.359 43.3125 114.188C43.3125 112.016 45.0785 110.25 47.25 110.25C49.4215 110.25 51.1875 112.016 51.1875 114.188C51.1875 116.359 49.4215 118.125 47.25 118.125ZM82.6875 114.188C82.6875 116.359 80.9215 118.125 78.75 118.125C76.5785 118.125 74.8125 116.359 74.8125 114.188C74.8125 112.016 76.5785 110.25 78.75 110.25C80.9215 110.25 82.6875 112.016 82.6875 114.188ZM108.281 104.344C108.281 106.515 106.515 108.281 104.344 108.281C102.172 108.281 100.406 106.515 100.406 104.344C100.406 102.172 102.172 100.406 104.344 100.406C106.515 100.406 108.281 102.172 108.281 104.344ZM114.188 74.8125C116.359 74.8125 118.125 76.5785 118.125 78.75C118.125 80.9215 116.359 82.6875 114.188 82.6875C112.016 82.6875 110.25 80.9215 110.25 78.75C110.25 76.5785 112.016 74.8125 114.188 74.8125ZM114.188 43.3125C116.359 43.3125 118.125 45.0785 118.125 47.25C118.125 49.4215 116.359 51.1875 114.188 51.1875C112.016 51.1875 110.25 49.4215 110.25 47.25C110.25 45.0785 112.016 43.3125 114.188 43.3125ZM17.7188 21.6562C17.7188 19.4847 19.4847 17.7188 21.6562 17.7188C23.8278 17.7188 25.5938 19.4847 25.5938 21.6562C25.5938 23.8278 23.8278 25.5938 21.6562 25.5938C19.4847 25.5938 17.7188 23.8278 17.7188 21.6562ZM11.8125 51.1875C9.64097 51.1875 7.875 49.4215 7.875 47.25C7.875 45.0785 9.64097 43.3125 11.8125 43.3125C13.984 43.3125 15.75 45.0785 15.75 47.25C15.75 49.4215 13.984 51.1875 11.8125 51.1875ZM88.5938 78.75H37.4062C31.9784 78.75 27.5625 74.3341 27.5625 68.9062C27.5625 64.0257 31.0649 59.9386 35.8923 59.1924C36.7408 59.0625 37.4062 58.3971 37.5362 57.5466C38.2804 52.7251 42.3596 49.2227 47.2874 49.2227C47.2913 49.2227 47.2953 49.2227 47.2992 49.2227C48.3643 49.2975 49.2089 48.5159 49.3369 47.5C50.1952 40.6232 56.068 35.4375 63 35.4375C70.5994 35.4375 76.7812 41.6213 76.7812 49.2188C76.7812 49.8468 76.7222 50.5339 76.6041 51.3135C76.4958 52.0104 76.7714 52.7113 77.3227 53.1523C77.8739 53.5953 78.6201 53.6996 79.2757 53.4417C81.9197 52.3943 84.6543 54.4832 84.6681 56.9047C84.6582 56.9796 84.6405 57.1371 84.6385 57.2119C84.6208 57.8025 84.8689 58.3715 85.3138 58.7593C85.7607 59.1452 86.3572 59.3125 86.94 59.2121C87.5346 59.1117 88.076 59.0625 88.5938 59.0625C94.0216 59.0625 98.4375 63.4784 98.4375 68.9062C98.4375 74.3341 94.0216 78.75 88.5938 78.75Z" fill="#4DBDEB"/>
</svg>
