<svg width="270" height="53" viewBox="0 0 270 53" fill="none" xmlns="http://www.w3.org/2000/svg">
<path d="M77.736 18.4H70.76V38H66.456V18.4H59.48V14.864H77.736V18.4ZM82.8503 23.344C83.4903 22.7467 84.1943 22.2613 84.9623 21.888C85.7303 21.5147 86.6316 21.328 87.6663 21.328C88.5623 21.328 89.3569 21.4827 90.0503 21.792C90.7436 22.0907 91.3196 22.5173 91.7783 23.072C92.2476 23.616 92.5996 24.272 92.8343 25.04C93.0796 25.7973 93.2023 26.6347 93.2023 27.552V38H89.2503V27.552C89.2503 26.5493 89.0209 25.776 88.5623 25.232C88.1036 24.6773 87.4049 24.4 86.4663 24.4C85.7836 24.4 85.1436 24.5547 84.5463 24.864C83.9489 25.1733 83.3836 25.5947 82.8503 26.128V38H78.8983V14.224H82.8503V23.344ZM106.577 27.904C106.577 27.392 106.502 26.912 106.353 26.464C106.214 26.0053 106.001 25.6053 105.713 25.264C105.425 24.9227 105.057 24.656 104.609 24.464C104.171 24.2613 103.659 24.16 103.073 24.16C101.931 24.16 101.03 24.4853 100.369 25.136C99.7181 25.7867 99.3021 26.7093 99.1208 27.904H106.577ZM99.0408 30.288C99.1048 31.1307 99.2541 31.8613 99.4888 32.48C99.7234 33.088 100.033 33.5947 100.417 34C100.801 34.3947 101.254 34.6933 101.777 34.896C102.31 35.088 102.897 35.184 103.537 35.184C104.177 35.184 104.726 35.1093 105.185 34.96C105.654 34.8107 106.059 34.6453 106.401 34.464C106.753 34.2827 107.057 34.1173 107.313 33.968C107.579 33.8187 107.835 33.744 108.081 33.744C108.411 33.744 108.657 33.8667 108.817 34.112L109.953 35.552C109.515 36.064 109.025 36.496 108.481 36.848C107.937 37.1893 107.366 37.4667 106.769 37.68C106.182 37.8827 105.579 38.0267 104.961 38.112C104.353 38.1973 103.761 38.24 103.185 38.24C102.043 38.24 100.982 38.0533 100.001 37.68C99.0194 37.296 98.1661 36.736 97.4408 36C96.7154 35.2533 96.1448 34.336 95.7288 33.248C95.3128 32.1493 95.1048 30.88 95.1048 29.44C95.1048 28.32 95.2861 27.2693 95.6488 26.288C96.0114 25.296 96.5288 24.4373 97.2008 23.712C97.8834 22.976 98.7101 22.3947 99.6808 21.968C100.662 21.5413 101.766 21.328 102.993 21.328C104.027 21.328 104.982 21.4933 105.857 21.824C106.731 22.1547 107.483 22.64 108.113 23.28C108.742 23.9093 109.233 24.688 109.585 25.616C109.947 26.5333 110.129 27.584 110.129 28.768C110.129 29.3653 110.065 29.7707 109.937 29.984C109.809 30.1867 109.563 30.288 109.201 30.288H99.0408ZM134.771 18.4H127.795V38H123.491V18.4H116.515V14.864H134.771V18.4ZM142.947 27.904C142.947 27.392 142.872 26.912 142.723 26.464C142.584 26.0053 142.371 25.6053 142.083 25.264C141.795 24.9227 141.427 24.656 140.979 24.464C140.541 24.2613 140.029 24.16 139.443 24.16C138.301 24.16 137.4 24.4853 136.739 25.136C136.088 25.7867 135.672 26.7093 135.491 27.904H142.947ZM135.411 30.288C135.475 31.1307 135.624 31.8613 135.859 32.48C136.093 33.088 136.403 33.5947 136.787 34C137.171 34.3947 137.624 34.6933 138.147 34.896C138.68 35.088 139.267 35.184 139.907 35.184C140.547 35.184 141.096 35.1093 141.555 34.96C142.024 34.8107 142.429 34.6453 142.771 34.464C143.123 34.2827 143.427 34.1173 143.683 33.968C143.949 33.8187 144.205 33.744 144.451 33.744C144.781 33.744 145.027 33.8667 145.187 34.112L146.323 35.552C145.885 36.064 145.395 36.496 144.851 36.848C144.307 37.1893 143.736 37.4667 143.139 37.68C142.552 37.8827 141.949 38.0267 141.331 38.112C140.723 38.1973 140.131 38.24 139.555 38.24C138.413 38.24 137.352 38.0533 136.371 37.68C135.389 37.296 134.536 36.736 133.811 36C133.085 35.2533 132.515 34.336 132.099 33.248C131.683 32.1493 131.475 30.88 131.475 29.44C131.475 28.32 131.656 27.2693 132.019 26.288C132.381 25.296 132.899 24.4373 133.571 23.712C134.253 22.976 135.08 22.3947 136.051 21.968C137.032 21.5413 138.136 21.328 139.363 21.328C140.397 21.328 141.352 21.4933 142.227 21.824C143.101 22.1547 143.853 22.64 144.483 23.28C145.112 23.9093 145.603 24.688 145.955 25.616C146.317 26.5333 146.499 27.584 146.499 28.768C146.499 29.3653 146.435 29.7707 146.307 29.984C146.179 30.1867 145.933 30.288 145.571 30.288H135.411ZM160.264 25.056C160.147 25.2053 160.03 25.3227 159.912 25.408C159.806 25.4933 159.646 25.536 159.432 25.536C159.23 25.536 159.032 25.4773 158.84 25.36C158.648 25.232 158.419 25.0933 158.152 24.944C157.886 24.784 157.566 24.6453 157.192 24.528C156.83 24.4 156.376 24.336 155.832 24.336C155.139 24.336 154.531 24.464 154.008 24.72C153.486 24.9653 153.048 25.3227 152.696 25.792C152.355 26.2613 152.099 26.832 151.928 27.504C151.758 28.1653 151.672 28.9173 151.672 29.76C151.672 30.6347 151.763 31.4133 151.944 32.096C152.136 32.7787 152.408 33.3547 152.76 33.824C153.112 34.2827 153.539 34.6347 154.04 34.88C154.542 35.1147 155.107 35.232 155.736 35.232C156.366 35.232 156.872 35.1573 157.256 35.008C157.651 34.848 157.982 34.6773 158.248 34.496C158.515 34.304 158.744 34.1333 158.936 33.984C159.139 33.824 159.363 33.744 159.608 33.744C159.928 33.744 160.168 33.8667 160.328 34.112L161.464 35.552C161.027 36.064 160.552 36.496 160.04 36.848C159.528 37.1893 158.995 37.4667 158.44 37.68C157.896 37.8827 157.331 38.0267 156.744 38.112C156.168 38.1973 155.592 38.24 155.016 38.24C154.003 38.24 153.048 38.0533 152.152 37.68C151.256 37.296 150.472 36.7413 149.8 36.016C149.128 35.2907 148.595 34.4053 148.2 33.36C147.816 32.304 147.624 31.104 147.624 29.76C147.624 28.5547 147.795 27.44 148.136 26.416C148.488 25.3813 149 24.4907 149.672 23.744C150.344 22.9867 151.176 22.3947 152.168 21.968C153.16 21.5413 154.302 21.328 155.592 21.328C156.819 21.328 157.891 21.5253 158.808 21.92C159.736 22.3147 160.568 22.88 161.304 23.616L160.264 25.056ZM166.934 23.344C167.574 22.7467 168.278 22.2613 169.046 21.888C169.814 21.5147 170.715 21.328 171.75 21.328C172.646 21.328 173.441 21.4827 174.134 21.792C174.827 22.0907 175.403 22.5173 175.862 23.072C176.331 23.616 176.683 24.272 176.918 25.04C177.163 25.7973 177.286 26.6347 177.286 27.552V38H173.334V27.552C173.334 26.5493 173.105 25.776 172.646 25.232C172.187 24.6773 171.489 24.4 170.55 24.4C169.867 24.4 169.227 24.5547 168.63 24.864C168.033 25.1733 167.467 25.5947 166.934 26.128V38H162.982V14.224H166.934V23.344ZM201.082 34.448V38H187.53V14.864H191.834V34.448H201.082ZM211.243 30.992C210.101 31.0453 209.141 31.1467 208.363 31.296C207.584 31.4347 206.96 31.616 206.491 31.84C206.021 32.064 205.685 32.3253 205.483 32.624C205.28 32.9227 205.179 33.248 205.179 33.6C205.179 34.2933 205.381 34.7893 205.787 35.088C206.203 35.3867 206.741 35.536 207.403 35.536C208.213 35.536 208.912 35.392 209.499 35.104C210.096 34.8053 210.677 34.3573 211.243 33.76V30.992ZM202.187 23.872C204.075 22.144 206.347 21.28 209.003 21.28C209.963 21.28 210.821 21.44 211.579 21.76C212.336 22.0693 212.976 22.5067 213.499 23.072C214.021 23.6267 214.416 24.2933 214.683 25.072C214.96 25.8507 215.099 26.704 215.099 27.632V38H213.307C212.933 38 212.645 37.9467 212.443 37.84C212.24 37.7227 212.08 37.4933 211.963 37.152L211.611 35.968C211.195 36.3413 210.789 36.672 210.395 36.96C210 37.2373 209.589 37.472 209.163 37.664C208.736 37.856 208.277 38 207.787 38.096C207.307 38.2027 206.773 38.256 206.187 38.256C205.493 38.256 204.853 38.1653 204.267 37.984C203.68 37.792 203.173 37.5093 202.747 37.136C202.32 36.7627 201.989 36.2987 201.755 35.744C201.52 35.1893 201.403 34.544 201.403 33.808C201.403 33.392 201.472 32.9813 201.611 32.576C201.749 32.16 201.973 31.7653 202.283 31.392C202.603 31.0187 203.013 30.6667 203.515 30.336C204.016 30.0053 204.629 29.7173 205.355 29.472C206.091 29.2267 206.944 29.0293 207.915 28.88C208.885 28.72 209.995 28.624 211.243 28.592V27.632C211.243 26.5333 211.008 25.7227 210.539 25.2C210.069 24.6667 209.392 24.4 208.507 24.4C207.867 24.4 207.333 24.4747 206.907 24.624C206.491 24.7733 206.123 24.944 205.803 25.136C205.483 25.3173 205.189 25.4827 204.923 25.632C204.667 25.7813 204.379 25.856 204.059 25.856C203.781 25.856 203.547 25.7867 203.355 25.648C203.163 25.4987 203.008 25.328 202.891 25.136L202.187 23.872ZM221.813 33.744C222.261 34.288 222.746 34.672 223.269 34.896C223.802 35.12 224.362 35.232 224.949 35.232C225.557 35.232 226.101 35.1253 226.581 34.912C227.071 34.688 227.487 34.3467 227.829 33.888C228.17 33.4187 228.431 32.8267 228.613 32.112C228.794 31.3867 228.885 30.5227 228.885 29.52C228.885 27.7173 228.586 26.416 227.989 25.616C227.391 24.8053 226.533 24.4 225.413 24.4C224.655 24.4 223.994 24.576 223.429 24.928C222.863 25.2693 222.325 25.7547 221.813 26.384V33.744ZM221.813 23.6C222.474 22.9067 223.205 22.3573 224.005 21.952C224.815 21.536 225.738 21.328 226.773 21.328C227.722 21.328 228.575 21.5147 229.333 21.888C230.101 22.2613 230.751 22.8 231.285 23.504C231.829 24.1973 232.245 25.04 232.533 26.032C232.821 27.024 232.965 28.1387 232.965 29.376C232.965 30.7093 232.799 31.92 232.469 33.008C232.138 34.096 231.663 35.0293 231.045 35.808C230.437 36.576 229.701 37.1733 228.837 37.6C227.973 38.0267 227.013 38.24 225.957 38.24C225.445 38.24 224.981 38.1867 224.565 38.08C224.149 37.984 223.765 37.8453 223.413 37.664C223.061 37.4827 222.735 37.264 222.437 37.008C222.149 36.7413 221.871 36.448 221.605 36.128L221.429 37.232C221.365 37.5093 221.253 37.7067 221.093 37.824C220.943 37.9413 220.735 38 220.469 38H217.861V14.224H221.813V23.6Z" fill="white"/>
<g clip-path="url(#clip0_3_27)">
<path d="M9.76743 29.2913C8.23047 29.2913 6.9761 30.5434 6.9761 32.0826C6.9761 33.6086 8.22825 34.8739 9.76743 34.8739C11.2934 34.8739 12.5588 33.6108 12.5588 32.0826C12.5588 30.5434 11.2934 29.2913 9.76743 29.2913ZM9.76743 40.4411C8.23047 40.4411 6.9761 41.7043 6.9761 43.2325C6.9761 44.7694 8.22825 46.0238 9.76743 46.0238C11.2934 46.0238 12.5588 44.7716 12.5588 43.2325C12.5588 41.7065 11.2934 40.4411 9.76743 40.4411ZM9.76743 18.1282C8.23047 18.1282 6.9761 19.3913 6.9761 20.9195C6.9761 22.4565 8.22825 23.7108 9.76743 23.7108C11.2934 23.7108 12.5588 22.4587 12.5588 20.9195C12.5588 19.3913 11.2934 18.1282 9.76743 18.1282ZM1.39566 19.5239C0.616135 19.5239 0 20.14 0 20.9195C0 21.699 0.616135 22.3152 1.39566 22.3152C2.17519 22.3152 2.79133 21.699 2.79133 20.9195C2.79133 20.14 2.17297 19.5239 1.39566 19.5239ZM9.76743 6.9761C8.23047 6.9761 6.9761 8.22825 6.9761 9.76743C6.9761 11.2934 8.22825 12.5588 9.76743 12.5588C11.2934 12.5588 12.5588 11.2956 12.5588 9.76743C12.5588 8.23047 11.2934 6.9761 9.76743 6.9761ZM51.6043 22.313C52.3839 22.313 53 21.6968 53 20.9173C53 20.1378 52.3839 19.5216 51.6043 19.5216C50.8248 19.5216 50.2087 20.1378 50.2087 20.9173C50.2087 21.6968 50.8269 22.313 51.6043 22.313ZM32.0804 12.5588C33.6063 12.5588 34.8717 11.2956 34.8717 9.76743C34.8717 8.23047 33.6086 6.9761 32.0804 6.9761C30.5434 6.9761 29.2891 8.22825 29.2891 9.76743C29.2913 11.2934 30.5434 12.5588 32.0804 12.5588ZM32.0804 2.79133C32.8599 2.79133 33.476 2.17519 33.476 1.39566C33.476 0.616135 32.86 0 32.0804 0C31.3009 0 30.6847 0.616135 30.6847 1.39566C30.6847 2.17519 31.3031 2.79133 32.0804 2.79133ZM1.39566 30.6869C0.616135 30.6869 0 31.3031 0 32.0804C0 32.8577 0.616135 33.476 1.39566 33.476C2.17519 33.476 2.79133 32.8599 2.79133 32.0804C2.79133 31.3009 2.17297 30.6869 1.39566 30.6869ZM20.9195 50.2087C20.14 50.2087 19.5239 50.8248 19.5239 51.6043C19.5239 52.3839 20.14 53 20.9195 53C21.699 53 22.3152 52.3839 22.3152 51.6043C22.3152 50.8247 21.6968 50.2087 20.9195 50.2087ZM20.9195 2.79133C21.699 2.79133 22.3152 2.17519 22.3152 1.39566C22.3152 0.616135 21.6968 0 20.9195 0C20.1422 0 19.5239 0.616135 19.5239 1.39566C19.5239 2.17519 20.14 2.79133 20.9195 2.79133ZM20.9195 12.5588C22.4565 12.5588 23.7108 11.2956 23.7108 9.76743C23.7108 8.23047 22.4587 6.9761 20.9195 6.9761C19.3936 6.9761 18.1282 8.22825 18.1282 9.76743C18.1282 11.2934 19.3913 12.5588 20.9195 12.5588ZM20.9195 27.8956C18.6008 27.8956 16.7325 29.7639 16.7325 32.0826C16.7325 34.4013 18.6008 36.2696 20.9195 36.2696C23.2382 36.2696 25.1065 34.4013 25.1065 32.0826C25.1065 29.7639 23.2361 27.8956 20.9195 27.8956ZM43.2325 29.2913C41.7065 29.2913 40.4411 30.5434 40.4411 32.0826C40.4411 33.6086 41.7043 34.8739 43.2325 34.8739C44.7694 34.8739 46.0238 33.6108 46.0238 32.0826C46.0238 30.5434 44.7695 29.2913 43.2325 29.2913ZM43.2325 40.4411C41.7065 40.4411 40.4411 41.7043 40.4411 43.2325C40.4411 44.7694 41.7043 46.0238 43.2325 46.0238C44.7694 46.0238 46.0238 44.7716 46.0238 43.2325C46.0238 41.7065 44.7695 40.4411 43.2325 40.4411ZM43.2325 18.1282C41.7065 18.1282 40.4411 19.3913 40.4411 20.9195C40.4411 22.4565 41.7043 23.7108 43.2325 23.7108C44.7694 23.7108 46.0238 22.4587 46.0238 20.9195C46.0238 19.3913 44.7695 18.1282 43.2325 18.1282ZM43.2325 6.9761C41.7065 6.9761 40.4411 8.22825 40.4411 9.76743C40.4411 11.2934 41.7043 12.5588 43.2325 12.5588C44.7694 12.5588 46.0238 11.2956 46.0238 9.76743C46.0238 8.23047 44.7695 6.9761 43.2325 6.9761ZM51.6043 30.6869C50.8248 30.6869 50.2087 31.3031 50.2087 32.0826C50.2087 32.8621 50.8248 33.4783 51.6043 33.4783C52.3839 33.4783 53 32.8599 53 32.0804C53 31.3009 52.3839 30.6869 51.6043 30.6869ZM32.0804 40.4411C30.5434 40.4411 29.2891 41.7043 29.2891 43.2325C29.2891 44.7694 30.5412 46.0238 32.0804 46.0238C33.6063 46.0238 34.8717 44.7716 34.8717 43.2325C34.8718 41.7065 33.6086 40.4411 32.0804 40.4411ZM32.0804 50.2087C31.3009 50.2087 30.6847 50.8248 30.6847 51.6043C30.6847 52.3839 31.3031 53 32.0804 53C32.8577 53 33.476 52.3839 33.476 51.6043C33.476 50.8247 32.86 50.2087 32.0804 50.2087ZM20.9195 16.7325C18.6008 16.7325 16.7325 18.6008 16.7325 20.9195C16.7325 23.2382 18.6008 25.1065 20.9195 25.1065C23.2382 25.1065 25.1065 23.2382 25.1065 20.9195C25.1065 18.6008 23.2361 16.7325 20.9195 16.7325ZM20.9195 40.4411C19.3936 40.4411 18.1282 41.7043 18.1282 43.2325C18.1282 44.7694 19.3913 46.0238 20.9195 46.0238C22.4565 46.0238 23.7108 44.7716 23.7108 43.2325C23.7086 41.7065 22.4565 40.4411 20.9195 40.4411ZM32.0804 27.8956C29.7617 27.8956 27.8934 29.7639 27.8934 32.0826C27.8934 34.4013 29.7617 36.2696 32.0804 36.2696C34.3991 36.2696 36.2674 34.4013 36.2674 32.0826C36.2674 29.7639 34.3992 27.8956 32.0804 27.8956ZM32.0804 16.7325C29.7617 16.7325 27.8934 18.6008 27.8934 20.9195C27.8934 23.2382 29.7617 25.1065 32.0804 25.1065C34.3991 25.1065 36.2674 23.2382 36.2674 20.9195C36.2674 18.6008 34.3992 16.7325 32.0804 16.7325Z" fill="white"/>
</g>
<defs>
<clipPath id="clip0_3_27">
<rect width="53" height="53" fill="white"/>
</clipPath>
</defs>
</svg>
