<svg width="75" height="43" viewBox="0 0 75 43" fill="none" xmlns="http://www.w3.org/2000/svg">
<path d="M7.026 33.65H4.41V41H2.796V33.65H0.18V32.324H7.026V33.65ZM8.94384 35.504C9.18384 35.28 9.44784 35.098 9.73584 34.958C10.0238 34.818 10.3618 34.748 10.7498 34.748C11.0858 34.748 11.3838 34.806 11.6438 34.922C11.9038 35.034 12.1198 35.194 12.2918 35.402C12.4678 35.606 12.5998 35.852 12.6878 36.14C12.7798 36.424 12.8258 36.738 12.8258 37.082V41H11.3438V37.082C11.3438 36.706 11.2578 36.416 11.0858 36.212C10.9138 36.004 10.6518 35.9 10.2998 35.9C10.0438 35.9 9.80384 35.958 9.57984 36.074C9.35584 36.19 9.14384 36.348 8.94384 36.548V41H7.46184V32.084H8.94384V35.504ZM17.8413 37.214C17.8413 37.022 17.8133 36.842 17.7573 36.674C17.7053 36.502 17.6253 36.352 17.5173 36.224C17.4093 36.096 17.2713 35.996 17.1033 35.924C16.9393 35.848 16.7473 35.81 16.5273 35.81C16.0993 35.81 15.7613 35.932 15.5133 36.176C15.2693 36.42 15.1133 36.766 15.0453 37.214H17.8413ZM15.0153 38.108C15.0393 38.424 15.0953 38.698 15.1833 38.93C15.2713 39.158 15.3873 39.348 15.5313 39.5C15.6753 39.648 15.8453 39.76 16.0413 39.836C16.2413 39.908 16.4613 39.944 16.7013 39.944C16.9413 39.944 17.1473 39.916 17.3193 39.86C17.4953 39.804 17.6473 39.742 17.7753 39.674C17.9073 39.606 18.0213 39.544 18.1173 39.488C18.2173 39.432 18.3133 39.404 18.4053 39.404C18.5293 39.404 18.6213 39.45 18.6813 39.542L19.1073 40.082C18.9433 40.274 18.7593 40.436 18.5553 40.568C18.3513 40.696 18.1373 40.8 17.9133 40.88C17.6933 40.956 17.4673 41.01 17.2353 41.042C17.0073 41.074 16.7853 41.09 16.5693 41.09C16.1413 41.09 15.7433 41.02 15.3753 40.88C15.0073 40.736 14.6873 40.526 14.4153 40.25C14.1433 39.97 13.9293 39.626 13.7733 39.218C13.6173 38.806 13.5393 38.33 13.5393 37.79C13.5393 37.37 13.6073 36.976 13.7433 36.608C13.8793 36.236 14.0733 35.914 14.3253 35.642C14.5813 35.366 14.8913 35.148 15.2553 34.988C15.6233 34.828 16.0373 34.748 16.4973 34.748C16.8853 34.748 17.2433 34.81 17.5713 34.934C17.8993 35.058 18.1813 35.24 18.4173 35.48C18.6533 35.716 18.8373 36.008 18.9693 36.356C19.1053 36.7 19.1733 37.094 19.1733 37.538C19.1733 37.762 19.1493 37.914 19.1013 37.994C19.0533 38.07 18.9613 38.108 18.8253 38.108H15.0153ZM28.4141 33.65H25.7981V41H24.1841V33.65H21.5681V32.324H28.4141V33.65ZM31.48 37.214C31.48 37.022 31.452 36.842 31.396 36.674C31.344 36.502 31.264 36.352 31.156 36.224C31.048 36.096 30.91 35.996 30.742 35.924C30.578 35.848 30.386 35.81 30.166 35.81C29.738 35.81 29.4 35.932 29.152 36.176C28.908 36.42 28.752 36.766 28.684 37.214H31.48ZM28.654 38.108C28.678 38.424 28.734 38.698 28.822 38.93C28.91 39.158 29.026 39.348 29.17 39.5C29.314 39.648 29.484 39.76 29.68 39.836C29.88 39.908 30.1 39.944 30.34 39.944C30.58 39.944 30.786 39.916 30.958 39.86C31.134 39.804 31.286 39.742 31.414 39.674C31.546 39.606 31.66 39.544 31.756 39.488C31.856 39.432 31.952 39.404 32.044 39.404C32.168 39.404 32.26 39.45 32.32 39.542L32.746 40.082C32.582 40.274 32.398 40.436 32.194 40.568C31.99 40.696 31.776 40.8 31.552 40.88C31.332 40.956 31.106 41.01 30.874 41.042C30.646 41.074 30.424 41.09 30.208 41.09C29.78 41.09 29.382 41.02 29.014 40.88C28.646 40.736 28.326 40.526 28.054 40.25C27.782 39.97 27.568 39.626 27.412 39.218C27.256 38.806 27.178 38.33 27.178 37.79C27.178 37.37 27.246 36.976 27.382 36.608C27.518 36.236 27.712 35.914 27.964 35.642C28.22 35.366 28.53 35.148 28.894 34.988C29.262 34.828 29.676 34.748 30.136 34.748C30.524 34.748 30.882 34.81 31.21 34.934C31.538 35.058 31.82 35.24 32.056 35.48C32.292 35.716 32.476 36.008 32.608 36.356C32.744 36.7 32.812 37.094 32.812 37.538C32.812 37.762 32.788 37.914 32.74 37.994C32.692 38.07 32.6 38.108 32.464 38.108H28.654ZM37.9742 36.146C37.9302 36.202 37.8862 36.246 37.8422 36.278C37.8022 36.31 37.7422 36.326 37.6622 36.326C37.5862 36.326 37.5122 36.304 37.4402 36.26C37.3682 36.212 37.2822 36.16 37.1822 36.104C37.0822 36.044 36.9622 35.992 36.8222 35.948C36.6862 35.9 36.5162 35.876 36.3122 35.876C36.0522 35.876 35.8242 35.924 35.6282 36.02C35.4322 36.112 35.2682 36.246 35.1362 36.422C35.0082 36.598 34.9122 36.812 34.8482 37.064C34.7842 37.312 34.7522 37.594 34.7522 37.91C34.7522 38.238 34.7862 38.53 34.8542 38.786C34.9262 39.042 35.0282 39.258 35.1602 39.434C35.2922 39.606 35.4522 39.738 35.6402 39.83C35.8282 39.918 36.0402 39.962 36.2762 39.962C36.5122 39.962 36.7022 39.934 36.8462 39.878C36.9942 39.818 37.1182 39.754 37.2182 39.686C37.3182 39.614 37.4042 39.55 37.4762 39.494C37.5522 39.434 37.6362 39.404 37.7282 39.404C37.8482 39.404 37.9382 39.45 37.9982 39.542L38.4242 40.082C38.2602 40.274 38.0822 40.436 37.8902 40.568C37.6982 40.696 37.4982 40.8 37.2902 40.88C37.0862 40.956 36.8742 41.01 36.6542 41.042C36.4382 41.074 36.2222 41.09 36.0062 41.09C35.6262 41.09 35.2682 41.02 34.9322 40.88C34.5962 40.736 34.3022 40.528 34.0502 40.256C33.7982 39.984 33.5982 39.652 33.4502 39.26C33.3062 38.864 33.2342 38.414 33.2342 37.91C33.2342 37.458 33.2982 37.04 33.4262 36.656C33.5582 36.268 33.7502 35.934 34.0022 35.654C34.2542 35.37 34.5662 35.148 34.9382 34.988C35.3102 34.828 35.7382 34.748 36.2222 34.748C36.6822 34.748 37.0842 34.822 37.4282 34.97C37.7762 35.118 38.0882 35.33 38.3642 35.606L37.9742 36.146ZM40.4752 35.504C40.7152 35.28 40.9792 35.098 41.2672 34.958C41.5552 34.818 41.8932 34.748 42.2812 34.748C42.6172 34.748 42.9152 34.806 43.1752 34.922C43.4352 35.034 43.6512 35.194 43.8232 35.402C43.9992 35.606 44.1312 35.852 44.2192 36.14C44.3112 36.424 44.3572 36.738 44.3572 37.082V41H42.8752V37.082C42.8752 36.706 42.7892 36.416 42.6172 36.212C42.4452 36.004 42.1832 35.9 41.8312 35.9C41.5752 35.9 41.3352 35.958 41.1112 36.074C40.8872 36.19 40.6752 36.348 40.4752 36.548V41H38.9932V32.084H40.4752V35.504ZM53.2807 39.668V41H48.1987V32.324H49.8127V39.668H53.2807ZM57.091 38.372C56.663 38.392 56.303 38.43 56.011 38.486C55.719 38.538 55.485 38.606 55.309 38.69C55.133 38.774 55.007 38.872 54.931 38.984C54.855 39.096 54.817 39.218 54.817 39.35C54.817 39.61 54.893 39.796 55.045 39.908C55.201 40.02 55.403 40.076 55.651 40.076C55.955 40.076 56.217 40.022 56.437 39.914C56.661 39.802 56.879 39.634 57.091 39.41V38.372ZM53.695 35.702C54.403 35.054 55.255 34.73 56.251 34.73C56.611 34.73 56.933 34.79 57.217 34.91C57.501 35.026 57.741 35.19 57.937 35.402C58.133 35.61 58.281 35.86 58.381 36.152C58.485 36.444 58.537 36.764 58.537 37.112V41H57.865C57.725 41 57.617 40.98 57.541 40.94C57.465 40.896 57.405 40.81 57.361 40.682L57.229 40.238C57.073 40.378 56.921 40.502 56.773 40.61C56.625 40.714 56.471 40.802 56.311 40.874C56.151 40.946 55.979 41 55.795 41.036C55.615 41.076 55.415 41.096 55.195 41.096C54.935 41.096 54.695 41.062 54.475 40.994C54.255 40.922 54.065 40.816 53.905 40.676C53.745 40.536 53.621 40.362 53.533 40.154C53.445 39.946 53.401 39.704 53.401 39.428C53.401 39.272 53.427 39.118 53.479 38.966C53.531 38.81 53.615 38.662 53.731 38.522C53.851 38.382 54.005 38.25 54.193 38.126C54.381 38.002 54.611 37.894 54.883 37.802C55.159 37.71 55.479 37.636 55.843 37.58C56.207 37.52 56.623 37.484 57.091 37.472V37.112C57.091 36.7 57.003 36.396 56.827 36.2C56.651 36 56.397 35.9 56.065 35.9C55.825 35.9 55.625 35.928 55.465 35.984C55.309 36.04 55.171 36.104 55.051 36.176C54.931 36.244 54.821 36.306 54.721 36.362C54.625 36.418 54.517 36.446 54.397 36.446C54.293 36.446 54.205 36.42 54.133 36.368C54.061 36.312 54.003 36.248 53.959 36.176L53.695 35.702ZM61.0548 39.404C61.2228 39.608 61.4048 39.752 61.6008 39.836C61.8008 39.92 62.0108 39.962 62.2308 39.962C62.4588 39.962 62.6628 39.922 62.8428 39.842C63.0268 39.758 63.1828 39.63 63.3108 39.458C63.4388 39.282 63.5368 39.06 63.6048 38.792C63.6728 38.52 63.7068 38.196 63.7068 37.82C63.7068 37.144 63.5948 36.656 63.3708 36.356C63.1468 36.052 62.8248 35.9 62.4048 35.9C62.1208 35.9 61.8728 35.966 61.6608 36.098C61.4488 36.226 61.2468 36.408 61.0548 36.644V39.404ZM61.0548 35.6C61.3028 35.34 61.5768 35.134 61.8768 34.982C62.1808 34.826 62.5268 34.748 62.9148 34.748C63.2708 34.748 63.5908 34.818 63.8748 34.958C64.1628 35.098 64.4068 35.3 64.6068 35.564C64.8108 35.824 64.9668 36.14 65.0748 36.512C65.1828 36.884 65.2368 37.302 65.2368 37.766C65.2368 38.266 65.1748 38.72 65.0508 39.128C64.9268 39.536 64.7488 39.886 64.5168 40.178C64.2888 40.466 64.0128 40.69 63.6888 40.85C63.3648 41.01 63.0048 41.09 62.6088 41.09C62.4168 41.09 62.2428 41.07 62.0868 41.03C61.9308 40.994 61.7868 40.942 61.6548 40.874C61.5228 40.806 61.4008 40.724 61.2888 40.628C61.1808 40.528 61.0768 40.418 60.9768 40.298L60.9108 40.712C60.8868 40.816 60.8448 40.89 60.7848 40.934C60.7288 40.978 60.6508 41 60.5508 41H59.5728V32.084H61.0548V35.6Z" fill="white"/>
<g clip-path="url(#clip0_12_315)">
<path d="M29.4134 13.264C28.719 13.264 28.1522 13.831 28.1522 14.528C28.1522 15.219 28.718 15.792 29.4134 15.792C30.103 15.792 30.6747 15.22 30.6747 14.528C30.6747 13.831 30.103 13.264 29.4134 13.264ZM29.4134 18.313C28.719 18.313 28.1522 18.885 28.1522 19.577C28.1522 20.273 28.718 20.841 29.4134 20.841C30.103 20.841 30.6747 20.274 30.6747 19.577C30.6747 18.886 30.103 18.313 29.4134 18.313ZM29.4134 8.209C28.719 8.209 28.1522 8.781 28.1522 9.473C28.1522 10.1689 28.718 10.737 29.4134 10.737C30.103 10.737 30.6747 10.1699 30.6747 9.473C30.6747 8.781 30.103 8.209 29.4134 8.209ZM25.6306 8.841C25.2784 8.841 25 9.12 25 9.473C25 9.826 25.2784 10.105 25.6306 10.105C25.9829 10.105 26.2613 9.826 26.2613 9.473C26.2613 9.12 25.9819 8.841 25.6306 8.841ZM29.4134 3.15899C28.719 3.15899 28.1522 3.726 28.1522 4.42299C28.1522 5.114 28.718 5.687 29.4134 5.687C30.103 5.687 30.6747 5.115 30.6747 4.42299C30.6747 3.72701 30.103 3.15899 29.4134 3.15899ZM48.3175 10.104C48.6697 10.104 48.9482 9.825 48.9482 9.472C48.9482 9.119 48.6697 8.84 48.3175 8.84C47.9653 8.84 47.6869 9.119 47.6869 9.472C47.6869 9.825 47.9662 10.104 48.3175 10.104ZM39.4956 5.687C40.1851 5.687 40.7569 5.115 40.7569 4.42299C40.7569 3.72701 40.1861 3.15899 39.4956 3.15899C38.8011 3.15899 38.2343 3.726 38.2343 4.42299C38.2353 5.114 38.8011 5.687 39.4956 5.687ZM39.4956 1.264C39.8478 1.264 40.1262 0.984995 40.1262 0.632C40.1262 0.279005 39.8478 0 39.4956 0C39.1433 0 38.865 0.279005 38.865 0.632C38.865 0.984995 39.1443 1.264 39.4956 1.264ZM25.6306 13.896C25.2784 13.896 25 14.175 25 14.5269C25 14.8789 25.2784 15.1589 25.6306 15.1589C25.9829 15.1589 26.2613 14.8799 26.2613 14.5269C26.2613 14.1739 25.9819 13.896 25.6306 13.896ZM34.4525 22.736C34.1003 22.736 33.8219 23.015 33.8219 23.368C33.8219 23.721 34.1003 24 34.4525 24C34.8048 24 35.0831 23.721 35.0831 23.368C35.0831 23.015 34.8038 22.736 34.4525 22.736ZM34.4525 1.264C34.8048 1.264 35.0831 0.984995 35.0831 0.632C35.0831 0.279005 34.8038 0 34.4525 0C34.1013 0 33.8219 0.279005 33.8219 0.632C33.8219 0.984995 34.1003 1.264 34.4525 1.264ZM34.4525 5.687C35.147 5.687 35.7138 5.115 35.7138 4.42299C35.7138 3.72701 35.148 3.15899 34.4525 3.15899C33.763 3.15899 33.1912 3.726 33.1912 4.42299C33.1912 5.114 33.762 5.687 34.4525 5.687ZM34.4525 12.632C33.4048 12.632 32.5606 13.478 32.5606 14.528C32.5606 15.578 33.4048 16.424 34.4525 16.424C35.5003 16.424 36.3444 15.578 36.3444 14.528C36.3444 13.478 35.4993 12.632 34.4525 12.632ZM44.5347 13.264C43.8452 13.264 43.2734 13.831 43.2734 14.528C43.2734 15.219 43.8442 15.792 44.5347 15.792C45.2292 15.792 45.7959 15.22 45.7959 14.528C45.7959 13.831 45.2292 13.264 44.5347 13.264ZM44.5347 18.313C43.8452 18.313 43.2734 18.885 43.2734 19.577C43.2734 20.273 43.8442 20.841 44.5347 20.841C45.2292 20.841 45.7959 20.274 45.7959 19.577C45.7959 18.886 45.2292 18.313 44.5347 18.313ZM44.5347 8.209C43.8452 8.209 43.2734 8.781 43.2734 9.473C43.2734 10.1689 43.8442 10.737 44.5347 10.737C45.2292 10.737 45.7959 10.1699 45.7959 9.473C45.7959 8.781 45.2292 8.209 44.5347 8.209ZM44.5347 3.15899C43.8452 3.15899 43.2734 3.726 43.2734 4.42299C43.2734 5.114 43.8442 5.687 44.5347 5.687C45.2292 5.687 45.7959 5.115 45.7959 4.42299C45.7959 3.72701 45.2292 3.15899 44.5347 3.15899ZM48.3175 13.896C47.9653 13.896 47.6869 14.175 47.6869 14.528C47.6869 14.881 47.9653 15.16 48.3175 15.16C48.6697 15.16 48.9482 14.8799 48.9482 14.5269C48.9482 14.1739 48.6697 13.896 48.3175 13.896ZM39.4956 18.313C38.8011 18.313 38.2343 18.885 38.2343 19.577C38.2343 20.273 38.8001 20.841 39.4956 20.841C40.1851 20.841 40.7569 20.274 40.7569 19.577C40.7569 18.886 40.1861 18.313 39.4956 18.313ZM39.4956 22.736C39.1433 22.736 38.865 23.015 38.865 23.368C38.865 23.721 39.1443 24 39.4956 24C39.8468 24 40.1262 23.721 40.1262 23.368C40.1262 23.015 39.8478 22.736 39.4956 22.736ZM34.4525 7.577C33.4048 7.577 32.5606 8.423 32.5606 9.473C32.5606 10.5229 33.4048 11.369 34.4525 11.369C35.5003 11.369 36.3444 10.5229 36.3444 9.473C36.3444 8.423 35.4993 7.577 34.4525 7.577ZM34.4525 18.313C33.763 18.313 33.1912 18.885 33.1912 19.577C33.1912 20.273 33.762 20.841 34.4525 20.841C35.147 20.841 35.7138 20.274 35.7138 19.577C35.7128 18.886 35.147 18.313 34.4525 18.313ZM39.4956 12.632C38.4478 12.632 37.6037 13.478 37.6037 14.528C37.6037 15.578 38.4478 16.424 39.4956 16.424C40.5433 16.424 41.3875 15.578 41.3875 14.528C41.3875 13.478 40.5433 12.632 39.4956 12.632ZM39.4956 7.577C38.4478 7.577 37.6037 8.423 37.6037 9.473C37.6037 10.5229 38.4478 11.369 39.4956 11.369C40.5433 11.369 41.3875 10.5229 41.3875 9.473C41.3875 8.423 40.5433 7.577 39.4956 7.577Z" fill="white"/>
</g>
<defs>
<clipPath id="clip0_12_315">
<rect width="24" height="24" fill="white" transform="translate(25)"/>
</clipPath>
</defs>
</svg>
