<svg width="41" height="41" viewBox="0 0 41 41" fill="none" xmlns="http://www.w3.org/2000/svg">
<g clip-path="url(#clip0_4_135)">
<path d="M7.55593 22.6593C6.36697 22.6593 5.3966 23.6279 5.3966 24.8186C5.3966 25.9991 6.36525 26.9779 7.55593 26.9779C8.73639 26.9779 9.71526 26.0008 9.71526 24.8186C9.71526 23.6279 8.73639 22.6593 7.55593 22.6593ZM7.55593 31.2847C6.36697 31.2847 5.3966 32.2618 5.3966 33.444C5.3966 34.633 6.36525 35.6033 7.55593 35.6033C8.73639 35.6033 9.71526 34.6347 9.71526 33.444C9.71526 32.2635 8.73639 31.2847 7.55593 31.2847ZM7.55593 14.0237C6.36697 14.0237 5.3966 15.0008 5.3966 16.183C5.3966 17.372 6.36525 18.3423 7.55593 18.3423C8.73639 18.3423 9.71526 17.3737 9.71526 16.183C9.71526 15.0008 8.73639 14.0237 7.55593 14.0237ZM1.07966 15.1034C0.476633 15.1034 0 15.58 0 16.183C0 16.7861 0.476633 17.2627 1.07966 17.2627C1.6827 17.2627 2.15933 16.7861 2.15933 16.183C2.15933 15.58 1.68098 15.1034 1.07966 15.1034ZM7.55593 5.3966C6.36697 5.3966 5.3966 6.36525 5.3966 7.55593C5.3966 8.73639 6.36525 9.71526 7.55593 9.71526C8.73639 9.71526 9.71526 8.73811 9.71526 7.55593C9.71526 6.36697 8.73639 5.3966 7.55593 5.3966ZM39.9203 17.261C40.5234 17.261 41 16.7843 41 16.1813C41 15.5783 40.5234 15.1016 39.9203 15.1016C39.3173 15.1016 38.8407 15.5783 38.8407 16.1813C38.8407 16.7843 39.3189 17.261 39.9203 17.261ZM24.8169 9.71526C25.9974 9.71526 26.9762 8.73811 26.9762 7.55593C26.9762 6.36697 25.9991 5.3966 24.8169 5.3966C23.6279 5.3966 22.6576 6.36525 22.6576 7.55593C22.6593 8.73639 23.6279 9.71526 24.8169 9.71526ZM24.8169 2.15933C25.4199 2.15933 25.8966 1.6827 25.8966 1.07966C25.8966 0.476633 25.42 0 24.8169 0C24.2139 0 23.7372 0.476633 23.7372 1.07966C23.7372 1.6827 24.2156 2.15933 24.8169 2.15933ZM1.07966 23.739C0.476633 23.739 0 24.2156 0 24.8169C0 25.4182 0.476633 25.8966 1.07966 25.8966C1.6827 25.8966 2.15933 25.4199 2.15933 24.8169C2.15933 24.2139 1.68098 23.739 1.07966 23.739ZM16.183 38.8407C15.58 38.8407 15.1034 39.3173 15.1034 39.9203C15.1034 40.5234 15.58 41 16.183 41C16.7861 41 17.2627 40.5234 17.2627 39.9203C17.2627 39.3172 16.7843 38.8407 16.183 38.8407ZM16.183 2.15933C16.7861 2.15933 17.2627 1.6827 17.2627 1.07966C17.2627 0.476633 16.7843 0 16.183 0C15.5817 0 15.1034 0.476633 15.1034 1.07966C15.1034 1.6827 15.58 2.15933 16.183 2.15933ZM16.183 9.71526C17.372 9.71526 18.3423 8.73811 18.3423 7.55593C18.3423 6.36697 17.3737 5.3966 16.183 5.3966C15.0026 5.3966 14.0237 6.36525 14.0237 7.55593C14.0237 8.73639 15.0008 9.71526 16.183 9.71526ZM16.183 21.5796C14.3893 21.5796 12.944 23.0249 12.944 24.8186C12.944 26.6123 14.3893 28.0576 16.183 28.0576C17.9767 28.0576 19.422 26.6123 19.422 24.8186C19.422 23.0249 17.9751 21.5796 16.183 21.5796ZM33.444 22.6593C32.2635 22.6593 31.2847 23.6279 31.2847 24.8186C31.2847 25.9991 32.2618 26.9779 33.444 26.9779C34.633 26.9779 35.6033 26.0008 35.6033 24.8186C35.6033 23.6279 34.633 22.6593 33.444 22.6593ZM33.444 31.2847C32.2635 31.2847 31.2847 32.2618 31.2847 33.444C31.2847 34.633 32.2618 35.6033 33.444 35.6033C34.633 35.6033 35.6033 34.6347 35.6033 33.444C35.6033 32.2635 34.633 31.2847 33.444 31.2847ZM33.444 14.0237C32.2635 14.0237 31.2847 15.0008 31.2847 16.183C31.2847 17.372 32.2618 18.3423 33.444 18.3423C34.633 18.3423 35.6033 17.3737 35.6033 16.183C35.6033 15.0008 34.633 14.0237 33.444 14.0237ZM33.444 5.3966C32.2635 5.3966 31.2847 6.36525 31.2847 7.55593C31.2847 8.73639 32.2618 9.71526 33.444 9.71526C34.633 9.71526 35.6033 8.73811 35.6033 7.55593C35.6033 6.36697 34.633 5.3966 33.444 5.3966ZM39.9203 23.739C39.3173 23.739 38.8407 24.2156 38.8407 24.8186C38.8407 25.4216 39.3173 25.8983 39.9203 25.8983C40.5234 25.8983 41 25.4199 41 24.8169C41 24.2139 40.5234 23.739 39.9203 23.739ZM24.8169 31.2847C23.6279 31.2847 22.6576 32.2618 22.6576 33.444C22.6576 34.633 23.6262 35.6033 24.8169 35.6033C25.9974 35.6033 26.9762 34.6347 26.9762 33.444C26.9763 32.2635 25.9991 31.2847 24.8169 31.2847ZM24.8169 38.8407C24.2139 38.8407 23.7372 39.3173 23.7372 39.9203C23.7372 40.5234 24.2156 41 24.8169 41C25.4182 41 25.8966 40.5234 25.8966 39.9203C25.8966 39.3172 25.42 38.8407 24.8169 38.8407ZM16.183 12.944C14.3893 12.944 12.944 14.3893 12.944 16.183C12.944 17.9767 14.3893 19.422 16.183 19.422C17.9767 19.422 19.422 17.9767 19.422 16.183C19.422 14.3893 17.9751 12.944 16.183 12.944ZM16.183 31.2847C15.0026 31.2847 14.0237 32.2618 14.0237 33.444C14.0237 34.633 15.0008 35.6033 16.183 35.6033C17.372 35.6033 18.3423 34.6347 18.3423 33.444C18.3406 32.2635 17.372 31.2847 16.183 31.2847ZM24.8169 21.5796C23.0232 21.5796 21.5779 23.0249 21.5779 24.8186C21.5779 26.6123 23.0232 28.0576 24.8169 28.0576C26.6106 28.0576 28.0559 26.6123 28.0559 24.8186C28.0559 23.0249 26.6107 21.5796 24.8169 21.5796ZM24.8169 12.944C23.0232 12.944 21.5779 14.3893 21.5779 16.183C21.5779 17.9767 23.0232 19.422 24.8169 19.422C26.6106 19.422 28.0559 17.9767 28.0559 16.183C28.0559 14.3893 26.6107 12.944 24.8169 12.944Z" fill="#787E7E"/>
</g>
<defs>
<clipPath id="clip0_4_135">
<rect width="41" height="41" fill="white"/>
</clipPath>
</defs>
</svg>
