<svg width="22" height="22" viewBox="0 0 22 22" fill="none" xmlns="http://www.w3.org/2000/svg">
<path d="M4.8125 3.4375C4.06102 3.4375 3.4375 4.06102 3.4375 4.8125V17.1875C3.4375 17.939 4.06102 18.5625 4.8125 18.5625H17.1875C17.939 18.5625 18.5625 17.939 18.5625 17.1875V4.8125C18.5625 4.06102 17.939 3.4375 17.1875 3.4375H4.8125ZM4.8125 4.8125H17.1875V17.1875H13.6211V12.5469H15.4043L15.6621 10.4844H13.6211V9.15234C13.6211 8.55147 13.7694 8.14258 14.6309 8.14258H15.748V6.27344C15.5576 6.248 14.8957 6.20898 14.1367 6.20898C12.5527 6.20898 11.4727 7.16169 11.4727 8.9375V10.4844H9.66797V12.5469H11.4727V17.1875H4.8125V4.8125Z" fill="white"/>
</svg>
