<svg width="16" height="16" viewBox="0 0 16 16" fill="none" xmlns="http://www.w3.org/2000/svg">
<path d="M1.8125 0.4375C1.06102 0.4375 0.4375 1.06102 0.4375 1.8125V14.1875C0.4375 14.939 1.06102 15.5625 1.8125 15.5625H14.1875C14.939 15.5625 15.5625 14.939 15.5625 14.1875V1.8125C15.5625 1.06102 14.939 0.4375 14.1875 0.4375H1.8125ZM1.8125 1.8125H14.1875V14.1875H10.6211V9.54688H12.4043L12.6621 7.48438H10.6211V6.15234C10.6211 5.55147 10.7694 5.14258 11.6309 5.14258H12.748V3.27344C12.5576 3.248 11.8957 3.20898 11.1367 3.20898C9.55272 3.20898 8.47266 4.16169 8.47266 5.9375V7.48438H6.66797V9.54688H8.47266V14.1875H1.8125V1.8125Z" fill="white"/>
</svg>
