<svg width="30" height="30" viewBox="0 0 30 30" fill="none" xmlns="http://www.w3.org/2000/svg">
<g clip-path="url(#clip0_7_229)">
<path d="M17.3438 24.375H9.84375C9.09375 24.375 8.4375 23.7656 8.4375 22.9688V9.84375C8.4375 9.09375 9.09375 8.4375 9.84375 8.4375H20.1562C20.9531 8.4375 21.5625 9.09375 21.5625 9.84375V15.9375" stroke="#9EA1A1" stroke-width="2" stroke-miterlimit="10" stroke-linecap="round" stroke-linejoin="round"/>
<path d="M19.6875 8.4375H16.875V7.03125C16.875 6.23437 17.4844 5.625 18.2812 5.625C19.0781 5.625 19.6875 6.23437 19.6875 7.03125V8.4375Z" stroke="#9EA1A1" stroke-width="2" stroke-miterlimit="10" stroke-linecap="round" stroke-linejoin="round"/>
<path d="M19.2188 13.3594C19.2188 13.7344 18.8906 14.0625 18.5156 14.0625H11.4844C11.1094 14.0625 10.7812 13.7344 10.7812 13.3594V11.4844C10.7812 11.1094 11.1094 10.7812 11.4844 10.7812H18.5156C18.8906 10.7812 19.2188 11.1094 19.2188 11.4844V13.3594Z" stroke="#00B1E4" stroke-width="2" stroke-miterlimit="10" stroke-linecap="round" stroke-linejoin="round"/>
<path d="M24.375 20.625H19.6875V24.375H24.375V20.625Z" stroke="#00B1E4" stroke-width="2" stroke-miterlimit="10" stroke-linecap="round" stroke-linejoin="round"/>
<path d="M23.4375 20.625H20.625V19.6875C20.625 18.8906 21.2344 18.2812 22.0312 18.2812C22.8281 18.2812 23.4375 18.8906 23.4375 19.6875V20.625Z" stroke="#00B1E4" stroke-width="2" stroke-miterlimit="10" stroke-linecap="round" stroke-linejoin="round"/>
<path d="M19.2188 16.4062H17.8125V17.8125H19.2188V16.4062Z" stroke="#9EA1A1" stroke-width="2" stroke-miterlimit="10" stroke-linecap="round" stroke-linejoin="round"/>
<path d="M12.1875 16.4062H10.7812V17.8125H12.1875V16.4062Z" stroke="#9EA1A1" stroke-width="2" stroke-miterlimit="10" stroke-linecap="round" stroke-linejoin="round"/>
<path d="M15.7031 16.4062H14.2969V17.8125H15.7031V16.4062Z" stroke="#9EA1A1" stroke-width="2" stroke-miterlimit="10" stroke-linecap="round" stroke-linejoin="round"/>
<path d="M12.1875 20.1562H10.7812V21.5625H12.1875V20.1562Z" stroke="#9EA1A1" stroke-width="2" stroke-miterlimit="10" stroke-linecap="round" stroke-linejoin="round"/>
<path d="M15.7031 20.1562H14.2969V21.5625H15.7031V20.1562Z" stroke="#9EA1A1" stroke-width="2" stroke-miterlimit="10" stroke-linecap="round" stroke-linejoin="round"/>
</g>
<defs>
<clipPath id="clip0_7_229">
<rect width="30" height="30" fill="white"/>
</clipPath>
</defs>
</svg>
