<svg width="15" height="15" viewBox="0 0 15 15" fill="none" xmlns="http://www.w3.org/2000/svg">
<path d="M14.9927 7.4975C14.9927 8.54901 14.9715 9.60355 14.9987 10.6551C15.0441 12.5164 13.874 13.9546 12.3835 14.5952C11.7849 14.8521 11.1561 14.988 10.5061 14.988C8.47136 14.991 6.43364 15.0182 4.39894 14.979C2.86611 14.9487 1.60539 14.3082 0.701412 13.0451C0.226749 12.3804 0 11.625 0 10.8061C0 8.63966 0 6.4762 0 4.30972C0 2.54208 0.861648 1.30625 2.39145 0.502509C3.05658 0.155026 3.77916 0.00696817 4.53197 0.00394657C6.5062 0.00394657 8.48346 -0.0081398 10.4577 0.00998975C11.9905 0.0220761 13.2694 0.608265 14.2127 1.84108C14.7387 2.53 14.9927 3.32166 14.9927 4.19187C14.9927 5.29173 14.9927 6.39462 14.9927 7.4975ZM1.11561 7.4975C1.11561 8.60642 1.11561 9.71232 1.11561 10.8212C1.11561 11.3168 1.23049 11.7821 1.48748 12.2021C2.16168 13.305 3.18054 13.8428 4.44429 13.864C6.47294 13.8942 8.50462 13.8761 10.5363 13.87C11.0351 13.87 11.5189 13.7673 11.9694 13.5528C13.1968 12.9666 13.8831 12.0329 13.8771 10.6309C13.865 8.48556 13.874 6.34023 13.874 4.1949C13.874 3.58756 13.7017 3.03158 13.3419 2.54208C12.6466 1.60237 11.6852 1.14007 10.5363 1.12798C8.51067 1.10381 6.48504 1.11891 4.45941 1.12194C4.02707 1.12194 3.60985 1.20956 3.20473 1.36064C2.09214 1.7746 1.05816 2.82309 1.10654 4.36713C1.14282 5.4126 1.11561 6.45505 1.11561 7.4975Z" fill="white"/>
<path d="M7.51297 10.7004C5.56292 10.7004 3.99079 9.1473 3.98777 7.21348C3.98474 5.30988 5.56897 3.75074 7.50692 3.75074C9.45092 3.74772 11.0291 5.30384 11.0321 7.22255C11.0321 9.13824 9.45697 10.6974 7.51297 10.7004ZM7.51297 9.58241C8.84021 9.58241 9.91651 8.52183 9.91349 7.2165C9.91046 5.92326 8.83416 4.8657 7.51297 4.8657C6.18573 4.8657 5.10337 5.92024 5.10337 7.22255C5.1064 8.52788 6.18573 9.58543 7.51297 9.58241Z" fill="white"/>
<path d="M11.4403 2.69312C11.8484 2.69312 12.181 3.0406 12.181 3.46664C12.1779 3.89269 11.8424 4.23715 11.4342 4.23413C11.0321 4.23111 10.7026 3.88664 10.7026 3.46966C10.6995 3.04362 11.0321 2.69312 11.4403 2.69312Z" fill="white"/>
</svg>
