<svg width="30" height="30" viewBox="0 0 30 30" fill="none" xmlns="http://www.w3.org/2000/svg">
<path d="M11.25 21.5625H5.625C5.625 19.6406 6.79688 18 8.4375 17.25" stroke="#00B1E4" stroke-width="2" stroke-miterlimit="10" stroke-linecap="round" stroke-linejoin="round"/>
<path d="M21.5625 17.25C23.2031 17.9531 24.375 19.6406 24.375 21.5625H10.7812" stroke="#00B1E4" stroke-width="2" stroke-miterlimit="10" stroke-linecap="round" stroke-linejoin="round"/>
<path d="M10.3125 15C11.348 15 12.1875 14.1605 12.1875 13.125C12.1875 12.0895 11.348 11.25 10.3125 11.25C9.27697 11.25 8.4375 12.0895 8.4375 13.125C8.4375 14.1605 9.27697 15 10.3125 15Z" stroke="#00B1E4" stroke-width="2" stroke-miterlimit="10" stroke-linecap="round" stroke-linejoin="round"/>
<path d="M19.6875 15C20.723 15 21.5625 14.1605 21.5625 13.125C21.5625 12.0895 20.723 11.25 19.6875 11.25C18.652 11.25 17.8125 12.0895 17.8125 13.125C17.8125 14.1605 18.652 15 19.6875 15Z" stroke="#00B1E4" stroke-width="2" stroke-miterlimit="10" stroke-linecap="round" stroke-linejoin="round"/>
<path d="M15 11.7188C16.5533 11.7188 17.8125 10.4596 17.8125 8.90625C17.8125 7.35295 16.5533 6.09375 15 6.09375C13.4467 6.09375 12.1875 7.35295 12.1875 8.90625C12.1875 10.4596 13.4467 11.7188 15 11.7188Z" stroke="#9EA1A1" stroke-width="2" stroke-miterlimit="10" stroke-linecap="round" stroke-linejoin="round"/>
<path d="M20.625 21.5625H9.375V20.625C9.375 17.5313 11.9063 15 15 15C18.0937 15 20.625 17.5313 20.625 20.625V21.5625Z" stroke="#9EA1A1" stroke-width="2" stroke-miterlimit="10" stroke-linecap="round" stroke-linejoin="round"/>
</svg>
