<svg width="15" height="15" viewBox="0 0 15 15" fill="none" xmlns="http://www.w3.org/2000/svg">
<path d="M1.70455 0C0.771094 0 0 0.771094 0 1.70455V13.2955C0 14.2289 0.771094 15 1.70455 15H13.2955C14.2289 15 15 14.2289 15 13.2955V1.70455C15 0.771094 14.2289 0 13.2955 0H1.70455ZM1.70455 1.36364H13.2955C13.4911 1.36364 13.6364 1.50891 13.6364 1.70455V13.2955C13.6364 13.4911 13.4911 13.6364 13.2955 13.6364H1.70455C1.50891 13.6364 1.36364 13.4911 1.36364 13.2955V1.70455C1.36364 1.50891 1.50891 1.36364 1.70455 1.36364ZM3.70739 2.53551C3.05966 2.53551 2.53551 3.06034 2.53551 3.70739C2.53551 4.35443 3.05898 4.87926 3.70739 4.87926C4.35375 4.87926 4.87926 4.35443 4.87926 3.70739C4.87926 3.06102 4.35375 2.53551 3.70739 2.53551ZM9.86506 5.64631C8.88665 5.64631 8.23739 6.1817 7.96875 6.69034H7.92614V5.79545H6.00852V12.2727H8.01136V9.0767C8.01136 8.23261 8.17926 7.41477 9.22585 7.41477C10.2574 7.41477 10.2699 8.36864 10.2699 9.11932V12.2727H12.2727V8.71449C12.2727 6.97176 11.9016 5.64631 9.86506 5.64631ZM2.72727 5.79545V12.2727H4.75142V5.79545H2.72727Z" fill="white"/>
</svg>
